<svg width="25" height="25" viewBox="0 0 25 25" fill="none" xmlns="http://www.w3.org/2000/svg">
<path d="M13.3928 9.82157C13.3928 10.3146 12.9931 10.7144 12.5 10.7144C12.0069 10.7144 11.6071 10.3146 11.6071 9.82157C11.6071 9.32849 12.0069 8.92871 12.5 8.92871C12.9931 8.92871 13.3928 9.32849 13.3928 9.82157Z" fill="#957168" fill-opacity="0.8"/>
<path d="M12.5 6.25C10.0355 6.25262 8.03834 8.24977 8.03572 10.7143C8.03572 13.5509 11.4334 17.4107 12.5 18.5505C13.5662 17.4107 16.9643 13.5483 16.9643 10.7143C16.9617 8.24977 14.9645 6.25262 12.5 6.25ZM12.5 11.6071C11.5139 11.6071 10.7143 10.8076 10.7143 9.82143C10.7143 8.83527 11.5139 8.03571 12.5 8.03571C13.4862 8.03571 14.2857 8.83527 14.2857 9.82143C14.2857 10.8076 13.4862 11.6071 12.5 11.6071Z" fill="#957168" fill-opacity="0.8"/>
<path d="M12.5 0C5.59649 0 0 5.59649 0 12.5C0 19.4035 5.59649 25 12.5 25C19.4035 25 25 19.4035 25 12.5C24.9922 5.59976 19.4002 0.00784738 12.5 0ZM12.8156 19.5121C12.6413 19.6862 12.3587 19.6862 12.1844 19.5121C11.9786 19.3063 7.14286 14.4276 7.14286 10.7143C7.14286 7.75561 9.54132 5.35714 12.5 5.35714C15.4587 5.35714 17.8571 7.75561 17.8571 10.7143C17.8571 14.4276 13.0214 19.3063 12.8156 19.5121Z" fill="#957168" fill-opacity="0.8"/>
</svg>
