<svg width="25" height="25" viewBox="0 0 25 25" fill="none" xmlns="http://www.w3.org/2000/svg">
<path d="M14.7469 14.4004L13.7911 16.2308C13.6865 16.4314 13.4486 16.522 13.237 16.442C11.0787 15.625 9.3752 13.9211 8.55885 11.7626C8.47885 11.551 8.56954 11.3131 8.77008 11.2085L10.6005 10.2531L10.0233 6.98269C9.33204 6.59359 8.48627 6.60078 7.80158 7.00122C7.1169 7.40165 6.69619 8.13538 6.69641 8.92862C6.7023 14.1037 10.8963 18.2977 16.0714 18.3036C16.8642 18.3036 17.5977 17.8831 17.9982 17.1987C18.3986 16.5144 18.406 15.6689 18.0173 14.9776L14.7469 14.4004Z" fill="#957168" fill-opacity="0.8"/>
<path d="M12.5 0C5.59649 0 0 5.59649 0 12.5C0 19.4035 5.59649 25 12.5 25C19.4035 25 25 19.4035 25 12.5C24.9922 5.59976 19.4002 0.00784738 12.5 0ZM16.0714 19.1964C10.4032 19.1901 5.80989 14.5968 5.80357 8.92857C5.80379 7.77283 6.44182 6.71147 7.46242 6.16913C8.48323 5.62701 9.71985 5.6924 10.6777 6.33937C10.7779 6.40695 10.8464 6.51245 10.8673 6.63169L11.537 10.4204C11.5707 10.6123 11.4766 10.8037 11.3039 10.8937L9.54503 11.8125C10.2644 13.4386 11.5635 14.7385 13.1893 15.4585L14.1072 13.6974C14.1972 13.5247 14.3886 13.4306 14.5804 13.4644L18.3696 14.134C18.4886 14.1549 18.5939 14.2232 18.6615 14.3232C19.308 15.281 19.3732 16.5176 18.8309 17.538C18.2883 18.5586 17.2272 19.1964 16.0714 19.1964Z" fill="#957168" fill-opacity="0.8"/>
</svg>
