<svg width="58" height="72" viewBox="0 0 58 72" fill="none" xmlns="http://www.w3.org/2000/svg">
<path d="M48.4881 16.1912C46.8944 16.0985 45.6543 17.8939 45.6646 20.2793C45.6693 21.3395 45.924 22.3632 46.3819 23.162C46.6482 23.6264 46.9771 23.9986 47.3433 24.2605C45.974 26.8638 44.4319 29.3061 42.7232 31.5761C42.7609 31.2921 42.7875 31.0043 42.8019 30.7134C42.937 27.9726 42.0035 25.2763 40.1736 23.1212C40.0246 22.9458 39.8163 22.8331 39.5945 22.8081C39.3728 22.7831 39.1558 22.8479 38.9912 22.9879C34.9519 26.4277 34.5226 32.6396 37.9279 37.0689C36.8206 38.1632 35.6641 39.2018 34.4597 40.1829C33.4602 40.9971 32.4254 41.7704 31.3606 42.5061C31.5818 41.6652 31.6974 40.7284 31.6932 39.7539C31.6769 36.0697 30.0615 33.1985 27.9358 33.075C26.8353 33.0111 25.8486 33.6997 25.1574 35.0139C24.5558 36.1575 24.2284 37.6872 24.2358 39.3208C24.2375 39.7211 24.2596 40.1241 24.3014 40.5194C24.5423 42.7745 25.4021 44.5765 26.5549 45.4432C24.3229 46.6413 21.9809 47.6863 19.5404 48.5703C17.9505 49.1461 16.4091 49.6196 14.9445 50.0096C15.4872 49.5157 15.9815 48.96 16.4166 48.3443C17.1278 47.3379 17.6476 46.2274 17.9674 45.0541C18.3962 43.4804 18.465 41.7938 18.1523 40.0966L17.9832 39.1793C17.8978 38.7153 17.4601 38.3859 17.0058 38.4439L16.1076 38.5583C15.7109 38.6089 15.3152 38.6818 14.9313 38.7754C14.489 38.8832 14.2391 39.3395 14.3733 39.7945C14.5074 40.2495 14.9749 40.5311 15.4173 40.4233C15.7433 40.3438 16.0796 40.2818 16.417 40.2388L16.4925 40.2292L16.5067 40.3062C16.9698 42.8198 16.4469 45.3049 15.034 47.304C13.8467 48.984 12.1494 50.149 10.1775 50.665L14.0427 45.2012C14.0972 45.124 14.136 45.0398 14.1599 44.9521C14.2503 44.6205 14.1261 44.2401 13.8243 44.0127C13.4426 43.7253 12.9217 43.7914 12.6607 44.1603L8.79284 49.6283C8.70042 48.1009 8.97132 46.6028 9.59652 45.2389C10.3667 43.5584 11.6127 42.1958 13.1999 41.2983C13.5925 41.0763 13.7129 40.5626 13.4686 40.1511C13.2244 39.7395 12.7083 39.5858 12.3157 39.8077C10.445 40.8655 8.97683 42.4707 8.06976 44.45C7.14102 46.4763 6.87245 48.7524 7.29241 51.0324L7.3744 51.4777C4.28852 51.8553 2.35663 51.8142 2.30691 51.8129C1.84496 51.7997 1.48299 52.1679 1.49841 52.6355C1.51405 53.103 1.90126 53.4926 2.36321 53.5059C2.6878 53.5151 10.4245 53.6924 20.1264 50.192C20.8475 49.9318 21.5603 49.6578 22.2646 49.3704L22.7712 50.0063C24.6784 52.3997 27.3485 53.9548 30.2898 54.3853C33.231 54.8157 36.0912 54.07 38.3435 52.2855L39.0408 51.7329C39.1713 51.6295 39.2639 51.4869 39.308 51.3253C39.3211 51.2771 39.3299 51.2271 39.3341 51.1761C39.3524 50.9538 39.2822 50.728 39.1386 50.5479L38.5481 49.807C36.6409 47.4136 33.9708 45.8585 31.0296 45.428C30.7537 45.3877 30.4786 45.3575 30.2045 45.3378C32.0644 44.1862 33.8404 42.9241 35.5244 41.5548C35.7155 41.3994 35.9051 41.2425 36.0938 41.0844C39.7762 45.0375 45.7524 45.7208 49.7986 42.5149C49.9291 42.4116 50.0217 42.2689 50.0658 42.1072C50.0789 42.0591 50.0877 42.0091 50.0919 41.9581C50.1102 41.7359 50.04 41.5099 49.8965 41.3298C47.4215 38.2239 43.6321 36.8077 40.1206 37.3137C41.6146 35.7529 43.0154 34.0892 44.3204 32.3276C45.0512 33.4878 46.8497 34.0944 48.7956 33.7422C50.576 33.4198 51.8807 32.4035 52.2024 31.2227C52.2956 30.8809 52.3063 30.525 52.2223 30.1685C52.0275 29.341 51.3494 28.6544 50.3622 28.2847C49.512 27.9662 48.4819 27.8927 47.4615 28.0775C47.3477 28.0981 47.2353 28.1223 47.1243 28.1488C47.8829 26.8976 48.5996 25.6059 49.2724 24.2742C49.2972 24.2253 49.3165 24.1747 49.3305 24.1231C49.4329 23.7477 49.2575 23.3229 48.8931 23.1183C48.7724 23.0505 48.6443 23.0152 48.5182 23.008C48.5181 23.0077 48.5178 23.0073 48.5177 23.0072C48.4001 22.8098 48.0337 22.7606 47.8168 22.3823C47.5161 21.8576 47.3417 21.1266 47.3383 20.377C47.3316 18.8126 48.0188 17.8547 48.495 17.8825C48.9719 17.9102 49.6688 18.9486 49.6756 20.5127C49.6777 20.9919 49.6095 21.4616 49.4788 21.8687C49.3392 22.3055 49.5828 22.7953 50.0234 22.9641C50.4641 23.1329 50.9347 22.9161 51.0745 22.48C51.0988 22.4043 51.1215 22.3276 51.1426 22.2503C51.2827 21.7361 51.3523 21.1854 51.3497 20.6098C51.3399 18.2245 50.0827 16.2838 48.4881 16.1912ZM37.2707 50.8189L37.3202 50.881L37.2618 50.9274C35.3507 52.4416 32.924 53.0743 30.4284 52.7091C28.3224 52.4009 26.3819 51.4109 24.8545 49.8896L31.7516 50.8498C32.1588 50.9066 32.5201 50.6607 32.6229 50.2833C32.6365 50.2335 32.6455 50.1814 32.6497 50.1274C32.6846 49.6641 32.3394 49.2367 31.8784 49.1725L25.0312 48.2192C26.762 47.194 28.8021 46.7977 30.8918 47.1035C33.3871 47.4688 35.6525 48.7882 37.2707 50.8189ZM26.2068 37.0282C26.3226 36.603 26.4704 36.2146 26.6464 35.88C27.0266 35.1573 27.5115 34.7408 27.9434 34.7659C28.776 34.8142 29.6991 36.3719 29.9516 38.5395C28.1714 38.095 26.834 38.4023 25.9249 38.8395C25.9598 38.1985 26.0558 37.5821 26.2068 37.0282ZM27.9857 44.3101C27.2519 44.2675 26.3262 42.9356 26.0151 40.8262C26.5024 40.4114 27.7977 39.6085 30.0012 40.2822C29.9353 41.3974 29.6823 42.435 29.2821 43.1957C28.9018 43.9186 28.4172 44.3352 27.9857 44.3101ZM48.0137 41.6536C45.1364 43.4555 41.3708 43.1811 38.5504 41.0991L43.6124 41.8038C44.0196 41.8605 44.3809 41.6147 44.4837 41.2373C44.4973 41.1876 44.5063 41.1352 44.5105 41.0813C44.5454 40.6181 44.2002 40.1905 43.7392 40.1263L38.7547 39.4323C41.8339 38.2545 45.5179 39.0817 48.0137 41.6536ZM39.8367 34.601L39.9812 31.1831C40.0008 30.718 39.6424 30.3014 39.1805 30.2527C38.7186 30.2039 38.3284 30.5417 38.3087 31.0066L38.1675 34.347C37.5435 33.0181 37.2475 31.5646 37.3198 30.0957C37.4179 28.1027 38.1818 26.2888 39.4913 24.9032C40.6502 26.5666 41.2281 28.5318 41.1298 30.5249C41.0562 32.0194 40.6083 33.4131 39.8367 34.601ZM50.5954 30.4629C50.7068 30.9376 49.9091 31.8014 48.4034 32.0741C46.8978 32.3466 45.7746 31.8309 45.6627 31.356C45.6106 31.1347 45.7597 30.8363 46.0616 30.5578C46.4799 30.1718 47.1335 29.8755 47.8549 29.745C48.5761 29.6143 49.3102 29.6594 49.8686 29.8686C50.2716 30.0191 50.5432 30.2414 50.5954 30.4629Z" fill="#755A5A"/>
</svg>
