<svg width="78" height="94" viewBox="0 0 78 94" fill="none" xmlns="http://www.w3.org/2000/svg">
<path d="M10.9324 66.7335C12.9352 67.163 14.7973 65.3002 15.1724 62.4916C15.3389 61.2434 15.1829 59.9879 14.7331 58.9561C14.4715 58.3561 14.1156 57.8522 13.6946 57.4704C15.8517 54.6829 18.2015 52.1197 20.7342 49.7927C20.6402 50.1193 20.5598 50.4525 20.4942 50.7918C19.8774 53.9892 20.6206 57.349 22.587 60.2523C22.7472 60.4886 22.9925 60.663 23.2693 60.7371C23.5459 60.811 23.8313 60.7784 24.0625 60.6468C29.7362 57.4122 31.2903 50.1904 27.6993 44.2948C29.2792 43.23 30.9124 42.2405 32.597 41.3285C33.995 40.5716 35.4309 39.8698 36.8987 39.2184C36.4819 40.1632 36.1831 41.2421 36.03 42.3895C35.4513 46.7271 37.0296 50.4297 39.7008 51.0024C41.0838 51.2989 42.4452 50.6871 43.5341 49.28C44.4818 48.0555 45.1452 46.3217 45.4016 44.3984C45.4646 43.9271 45.5022 43.4485 45.5134 42.975C45.5753 40.2736 44.7798 37.9806 43.4612 36.7292C46.4822 35.7685 49.6173 35.01 52.8511 34.4606C54.9578 34.1029 56.9865 33.8557 58.9044 33.6913C58.1368 34.1632 57.4206 34.7177 56.7695 35.3546C55.7053 36.3956 54.8665 37.5975 54.2708 38.9137C53.4719 40.6788 53.1105 42.6492 53.2303 44.7088L53.2951 45.822C53.3278 46.385 53.8284 46.8606 54.4131 46.8837L55.569 46.9296C56.0794 46.9499 56.5923 46.9436 57.0935 46.9107C57.6712 46.8729 58.0618 46.3863 57.9659 45.824C57.8701 45.2617 57.324 44.8365 56.7463 44.8743C56.3206 44.9023 55.8846 44.9077 55.4505 44.8904L55.3534 44.8865L55.3479 44.7931C55.1704 41.7428 56.2367 38.9242 58.3509 36.8564C60.1275 35.1186 62.4659 34.0894 65.0465 33.8788L59.2639 39.5296C59.1823 39.6094 59.1195 39.7007 59.075 39.7991C58.9066 40.1711 59.002 40.6436 59.3471 40.9718C59.7836 41.3866 60.454 41.4136 60.8444 41.032L66.6311 35.3768C66.4996 37.1924 65.913 38.9003 64.8995 40.3793C63.651 42.2014 61.8518 43.554 59.6961 44.2907C59.1629 44.4729 58.927 45.0531 59.1693 45.5863C59.4115 46.1197 60.04 46.4043 60.5732 46.2221C63.1137 45.3539 65.2338 43.7605 66.7043 41.6143C68.2098 39.4171 68.9201 36.7934 68.7592 34.0265L68.7279 33.4862C72.6964 33.6625 75.1358 34.0992 75.1985 34.1107C75.7813 34.2192 76.2995 33.8587 76.356 33.3056C76.4122 32.7524 75.9854 32.2162 75.4026 32.1077C74.9931 32.0316 65.2263 30.2674 52.373 32.4349C51.4176 32.596 50.4706 32.7751 49.5321 32.9716L48.9941 32.1216C46.9687 28.9224 43.841 26.556 40.187 25.4581C36.5329 24.3604 32.7903 24.6627 29.6483 26.3093L28.6755 26.8192C28.4934 26.9145 28.353 27.0637 28.271 27.245C28.2465 27.2991 28.2272 27.3561 28.2136 27.4152C28.1542 27.6731 28.2064 27.9529 28.3589 28.1936L28.9861 29.184C31.0115 32.3832 34.1392 34.7496 37.7932 35.8475C38.1359 35.9503 38.4794 36.0411 38.8231 36.1195C36.2809 37.1003 33.827 38.2281 31.472 39.5005C31.2048 39.6448 30.9393 39.7913 30.6746 39.9394C26.6553 34.5483 19.1997 32.5428 13.5552 35.5009C13.3732 35.5963 13.2327 35.7455 13.1506 35.9269C13.1262 35.9808 13.1069 36.0378 13.0932 36.097C13.034 36.3547 13.0861 36.6348 13.2385 36.8754C15.867 41.0271 20.4345 43.4551 24.9628 43.5658C22.8173 45.1017 20.773 46.7773 18.8342 48.5875C18.0977 47.0756 15.9191 46.0003 13.3981 46.0235C11.0915 46.0448 9.27426 46.9781 8.67477 48.3026C8.50123 48.686 8.42972 49.1025 8.47807 49.5388C8.59022 50.5515 9.33703 51.4956 10.5269 52.1291C11.5515 52.6747 12.8438 52.9682 14.1658 52.956C14.3133 52.9547 14.4595 52.9488 14.6044 52.94C13.4403 54.2594 12.3228 55.6349 11.2542 57.0664C11.215 57.1189 11.1822 57.1746 11.1561 57.2324C10.9655 57.6535 11.1184 58.1885 11.5465 58.5025C11.6883 58.6066 11.8448 58.6739 12.0032 58.7077C12.0034 58.7081 12.0036 58.7085 12.0038 58.7088C12.1205 58.9646 12.5764 59.0962 12.7895 59.5848C13.0849 60.2626 13.1868 61.1576 13.0692 62.0402C12.8231 63.882 11.7973 64.8708 11.1989 64.7424C10.5996 64.6139 9.88613 63.2522 10.1319 61.4106C10.2073 60.8465 10.3699 60.3076 10.6017 59.8549C10.8495 59.3691 10.6207 58.7439 10.0903 58.4568C9.55981 58.1696 8.9287 58.3299 8.68067 58.8149C8.63759 58.8991 8.59645 58.9847 8.55717 59.0715C8.29615 59.6482 8.11844 60.2821 8.02803 60.9597C7.65245 63.768 8.92856 66.304 10.9324 66.7335ZM30.768 28.2503L30.7154 28.1673L30.797 28.1245C33.4629 26.7274 36.6384 26.4709 39.7388 27.4023C42.3551 28.1883 44.6509 29.7432 46.3374 31.8401L37.761 29.3236C37.2546 29.175 36.7572 29.3916 36.5656 29.8149C36.5403 29.8708 36.5204 29.9303 36.5063 29.993C36.3867 30.531 36.7543 31.1033 37.3276 31.2714L45.842 33.7697C43.4837 34.6278 40.8362 34.6838 38.2402 33.904C35.1402 32.9725 32.4865 30.9648 30.768 28.2503ZM42.5331 46.6993C42.3173 47.1762 42.067 47.6034 41.7896 47.9617C41.1907 48.7355 40.5091 49.128 39.9663 49.0116C38.9199 48.7874 38.0046 46.7692 38.0375 44.1683C40.2192 45.0491 41.9624 44.9565 43.1846 44.625C43.0362 45.372 42.8143 46.078 42.5331 46.6993ZM41.4653 37.7747C42.3875 37.9722 43.3429 39.7253 43.3935 42.2695C42.7091 42.6595 40.9385 43.3437 38.2582 42.1081C38.523 40.8093 39.0121 39.6394 39.6426 38.825C40.2417 38.0511 40.923 37.6584 41.4653 37.7747ZM15.675 36.8731C19.6113 35.3317 24.3343 36.4116 27.5666 39.4282L21.2722 37.5813C20.7658 37.4327 20.2684 37.6493 20.0767 38.0726C20.0515 38.1284 20.0315 38.1881 20.0175 38.2507C19.8979 38.7887 20.2654 39.3611 20.8387 39.5294L27.0369 41.3481C22.9465 42.1145 18.4167 40.4007 15.675 36.8731ZM24.881 46.8144L24.1421 50.8063C24.0415 51.3496 24.4276 51.9117 25.0045 52.0619C25.5814 52.2122 26.1304 51.8933 26.2309 51.3503L26.9531 47.4488C27.527 49.1377 27.6654 50.9071 27.3348 52.6208C26.8865 54.9458 25.6242 56.9262 23.7408 58.293C22.544 56.1031 22.132 53.6748 22.5807 51.3498C22.917 49.6063 23.7108 48.0567 24.881 46.8144ZM10.5859 49.5196C10.522 48.9386 11.6726 48.0829 13.6234 48.0647C15.5739 48.0468 16.9122 48.8794 16.9766 49.4606C17.0066 49.7315 16.7693 50.0525 16.3418 50.3195C15.7493 50.6895 14.8736 50.9067 13.939 50.9152C13.0045 50.9239 12.0824 50.7233 11.4094 50.3649C10.9237 50.1068 10.6159 49.7907 10.5859 49.5196Z" fill="#755A5A"/>
</svg>
