<svg width="58" height="58" viewBox="0 0 58 58" fill="none" xmlns="http://www.w3.org/2000/svg">
<g clip-path="url(#clip0)">
<path d="M49.5417 57.9998H20.5417C17.2115 57.9998 14.5 55.2908 14.5 51.9582V15.7082C14.5 12.3756 17.2115 9.6665 20.5417 9.6665H49.5417C52.8718 9.6665 55.5833 12.3756 55.5833 15.7082V51.9582C55.5833 55.2908 52.8718 57.9998 49.5417 57.9998ZM20.5417 12.0832C18.5431 12.0832 16.9167 13.7096 16.9167 15.7082V51.9582C16.9167 53.9568 18.5431 55.5832 20.5417 55.5832H49.5417C51.5402 55.5832 53.1667 53.9568 53.1667 51.9582V15.7082C53.1667 13.7096 51.5402 12.0832 49.5417 12.0832H20.5417Z" fill="#755A5A"/>
<path d="M10.8751 50.75H8.45838C5.12822 50.75 2.41672 48.0409 2.41672 44.7083V6.04167C2.41672 2.70908 5.12822 0 8.45838 0H37.4584C40.7885 0 43.5 2.70908 43.5 6.04167C43.5 6.70867 42.9587 7.25 42.2917 7.25C41.6247 7.25 41.0834 6.70867 41.0834 6.04167C41.0834 4.04308 39.457 2.41667 37.4584 2.41667H8.45838C6.4598 2.41667 4.83338 4.04308 4.83338 6.04167V44.7083C4.83338 46.7069 6.4598 48.3333 8.45838 48.3333H10.8751C11.5421 48.3333 12.0834 48.8747 12.0834 49.5417C12.0834 50.2087 11.5421 50.75 10.8751 50.75Z" fill="#755A5A"/>
<path d="M44.7083 41.0832H25.375C24.708 41.0832 24.1666 40.5418 24.1666 39.8748C24.1666 39.2078 24.708 38.6665 25.375 38.6665H44.7083C45.3753 38.6665 45.9166 39.2078 45.9166 39.8748C45.9166 40.5418 45.3753 41.0832 44.7083 41.0832Z" fill="#755A5A"/>
<path d="M44.7083 50.7502H25.375C24.708 50.7502 24.1666 50.2088 24.1666 49.5418C24.1666 48.8748 24.708 48.3335 25.375 48.3335H44.7083C45.3753 48.3335 45.9166 48.8748 45.9166 49.5418C45.9166 50.2088 45.3753 50.7502 44.7083 50.7502Z" fill="#755A5A"/>
<path d="M44.7083 31.4167H25.375C24.708 31.4167 24.1666 30.8753 24.1666 30.2083C24.1666 29.5413 24.708 29 25.375 29H44.7083C45.3753 29 45.9166 29.5413 45.9166 30.2083C45.9166 30.8753 45.3753 31.4167 44.7083 31.4167Z" fill="#755A5A"/>
<path d="M44.7083 21.7502H25.375C24.708 21.7502 24.1666 21.2088 24.1666 20.5418C24.1666 19.8748 24.708 19.3335 25.375 19.3335H44.7083C45.3753 19.3335 45.9166 19.8748 45.9166 20.5418C45.9166 21.2088 45.3753 21.7502 44.7083 21.7502Z" fill="#755A5A"/>
</g>
<defs>
<clipPath id="clip0">
<rect width="58" height="58" fill="white"/>
</clipPath>
</defs>
</svg>
