<svg width="58" height="58" viewBox="0 0 58 58" fill="none" xmlns="http://www.w3.org/2000/svg">
<path d="M27.4446 8.88721C26.4768 8.88721 25.567 9.26422 24.8829 9.94878C24.1984 10.6329 23.8214 11.5427 23.8218 12.5104C23.8218 14.5482 23.0859 16.4748 21.7425 17.9913C21.8288 17.5753 21.8743 17.1448 21.8743 16.7036C21.8743 13.2074 19.0304 10.363 15.5341 10.363C12.0379 10.363 9.19348 13.2074 9.19348 16.7036C9.19348 17.1448 9.23906 17.5753 9.32535 17.9913C8.03323 16.5293 7.24646 14.6106 7.24646 12.5104C7.24646 10.5125 5.62114 8.88721 3.62323 8.88721C1.62532 8.88721 0 10.5125 0 12.5104C0 18.54 3.45641 23.9664 8.8678 26.5401V38.1735C8.8678 38.1793 8.86691 38.185 8.86691 38.1912V56.8379C8.86691 57.4632 9.37402 57.9698 9.99928 57.9698C10.6245 57.9698 11.1312 57.4632 11.1312 56.8379V39.3236H21.3752V52.3089C21.3752 52.9341 21.8823 53.4413 22.5076 53.4413C23.1328 53.4413 23.6399 52.9341 23.6399 52.3089V25.7564C24.6825 25.1165 25.6467 24.3563 26.5131 23.4899C29.4505 20.5525 31.0678 16.6536 31.0678 12.5104C31.0678 10.5125 29.4425 8.88721 27.4446 8.88721ZM15.5341 12.6273C17.7816 12.6273 19.61 14.4557 19.61 16.7036C19.61 18.9511 17.7816 20.7795 15.5341 20.7795C13.2862 20.7795 11.4578 18.9511 11.4578 16.7036C11.4578 14.4557 13.2862 12.6273 15.5341 12.6273ZM24.9121 21.8884C24.0351 22.765 23.0412 23.5151 21.9575 24.1178C21.5982 24.3174 21.3752 24.6961 21.3752 25.1072V37.0588H11.1321V25.8059C11.1321 25.3493 10.8577 24.9373 10.4365 24.7612C5.47202 22.6872 2.2643 17.8785 2.2643 12.5104C2.2643 11.7613 2.87363 11.1519 3.62279 11.1519C4.37195 11.1519 4.98172 11.7617 4.98172 12.5104C4.98172 18.3289 9.71564 23.0624 15.5337 23.0624H15.5341C18.348 23.0624 20.9964 21.9641 22.9921 19.9689C24.9874 17.974 26.0861 15.3252 26.0861 12.5104C26.0861 12.1476 26.2273 11.8064 26.4839 11.5498C26.7406 11.2931 27.0817 11.1519 27.4446 11.1519C28.1938 11.1519 28.8031 11.7613 28.8035 12.5104C28.8035 16.0487 27.4211 19.379 24.9121 21.8884Z" fill="#755A5A"/>
<path d="M22.5076 55.7061C22.2084 55.7061 21.9177 55.8269 21.7071 56.0375C21.4964 56.2481 21.3752 56.5393 21.3752 56.838C21.3752 57.1358 21.4964 57.4278 21.7071 57.6385C21.9177 57.8491 22.2097 57.9703 22.5076 57.9703C22.8054 57.9703 23.0974 57.8491 23.308 57.6385C23.5187 57.4278 23.6399 57.1358 23.6399 56.838C23.6399 56.5402 23.5187 56.2481 23.308 56.0375C23.0974 55.8269 22.8054 55.7061 22.5076 55.7061Z" fill="#755A5A"/>
<path d="M16.2665 43.9214C15.6412 43.9214 15.1341 44.4285 15.1341 45.0538V56.8678C15.1341 57.493 15.6412 58.0001 16.2665 58.0001C16.8917 58.0001 17.3984 57.493 17.3984 56.8678V45.0538C17.3984 44.4285 16.8917 43.9214 16.2665 43.9214Z" fill="#755A5A"/>
<path d="M54.3471 24.3799C53.3793 24.3799 52.4691 24.7569 51.785 25.441C51.1004 26.1256 50.7239 27.0354 50.7239 28.0031C50.7239 30.0408 49.9884 31.9675 48.645 33.484C48.7308 33.068 48.7764 32.6375 48.7764 32.1963C48.7764 28.7001 45.9324 25.8556 42.4362 25.8556C38.9399 25.8556 36.0955 28.7001 36.0955 32.1963C36.0955 32.6375 36.1411 33.068 36.2274 33.484C34.9353 32.0219 34.1485 30.1032 34.1485 28.0031C34.1485 26.0052 32.5232 24.3799 30.5253 24.3799C28.5274 24.3799 26.902 26.0052 26.902 28.0031C26.902 29.3837 27.0844 30.7537 27.4441 32.0759C27.6078 32.6791 28.2296 33.0357 28.8336 32.8711C29.4372 32.7069 29.7929 32.0848 29.6288 31.4816C29.3221 30.3533 29.1663 29.1828 29.1663 28.0031C29.1663 27.254 29.7761 26.6442 30.5253 26.6442C31.2744 26.6446 31.8838 27.254 31.8838 28.0031C31.8838 33.8216 36.6177 38.5551 42.4357 38.5551H42.4362C45.2501 38.5551 47.8985 37.4563 49.8942 35.4615C51.8894 33.4667 52.9882 30.8179 52.9882 28.0027C52.9882 27.6403 53.1293 27.2991 53.386 27.0424C53.6426 26.7858 53.9838 26.6442 54.3466 26.6442C55.0958 26.6442 55.7051 27.254 55.7056 28.0031C55.7051 31.5414 54.3232 34.8717 51.8137 37.3811C50.9376 38.2577 49.9433 39.0078 48.8596 39.61C48.5003 39.81 48.2772 40.1888 48.2772 40.5999V52.5515H38.0341V41.2986C38.0341 40.842 37.7598 40.43 37.3385 40.2539C36.234 39.7923 35.1946 39.1812 34.2494 38.4383C33.7578 38.0515 33.0462 38.1369 32.6595 38.6285C32.2732 39.1197 32.3581 39.8317 32.8497 40.2185C33.7551 40.9305 34.7348 41.5385 35.7698 42.0323V53.6662C35.7694 53.6719 35.769 53.6777 35.769 53.6839V56.8381C35.769 57.4633 36.2756 57.97 36.9009 57.97C37.5261 57.97 38.0333 57.4633 38.0333 56.8381V54.8158H48.2772V56.8381C48.2772 57.4633 48.7844 57.97 49.4096 57.97C50.0349 57.97 50.5415 57.4633 50.5415 56.8381V41.2491C51.5845 40.6092 52.5487 39.8485 53.4152 38.9821C56.3521 36.0452 57.9699 32.1458 57.9699 28.0027C57.9699 26.0052 56.3446 24.3799 54.3471 24.3799ZM42.4362 28.1199C44.6837 28.1199 46.5121 29.9484 46.5121 32.1963C46.5121 34.4438 44.6837 36.2722 42.4362 36.2722C40.1887 36.2722 38.3603 34.4438 38.3603 32.1963C38.3603 29.9484 40.1887 28.1199 42.4362 28.1199Z" fill="#755A5A"/>
<path d="M31.4316 35.409C31.0811 34.8908 30.3771 34.755 29.8593 35.1046C29.3412 35.455 29.2049 36.1586 29.5549 36.6768L29.5677 36.6958C29.7859 37.0228 30.1448 37.1998 30.5107 37.1998C30.7262 37.1998 30.9448 37.1383 31.1377 37.0096C31.6581 36.6626 31.7984 35.9599 31.4515 35.4395L31.4316 35.409Z" fill="#755A5A"/>
<path d="M50.7239 14.6972C51.3492 14.6972 51.8563 14.1906 51.8563 13.5653V12.0015C51.8563 11.3763 51.3492 10.8691 50.7239 10.8691C50.0987 10.8691 49.5916 11.3763 49.5916 12.0015V13.5653C49.5916 14.1906 50.0987 14.6972 50.7239 14.6972Z" fill="#755A5A"/>
<path d="M50.7239 22.1919C51.3492 22.1919 51.8563 21.6848 51.8563 21.0595V19.4957C51.8563 18.8709 51.3492 18.3638 50.7239 18.3638C50.0987 18.3638 49.5916 18.8709 49.5916 19.4957V21.0595C49.5916 21.6848 50.0987 22.1919 50.7239 22.1919Z" fill="#755A5A"/>
<path d="M53.6891 17.6627H55.2529C55.8782 17.6627 56.3849 17.1561 56.3849 16.5308C56.3849 15.9055 55.8782 15.3984 55.2529 15.3984H53.6891C53.0639 15.3984 52.5568 15.9055 52.5568 16.5308C52.5568 17.1561 53.0639 17.6627 53.6891 17.6627Z" fill="#755A5A"/>
<path d="M46.1949 17.6627H47.7587C48.3839 17.6627 48.8911 17.1561 48.8911 16.5308C48.8911 15.9055 48.3839 15.3984 47.7587 15.3984H46.1949C45.5696 15.3984 45.0625 15.9055 45.0625 16.5308C45.0625 17.1561 45.5696 17.6627 46.1949 17.6627Z" fill="#755A5A"/>
<path d="M38.9489 3.82811C39.5742 3.82811 40.0808 3.321 40.0808 2.69574V1.13237C40.0808 0.50711 39.5742 0 38.9489 0C38.3236 0 37.8165 0.50711 37.8165 1.13237V2.69574C37.8165 3.321 38.3232 3.82811 38.9489 3.82811Z" fill="#755A5A"/>
<path d="M38.9489 11.3222C39.5742 11.3222 40.0808 10.8151 40.0808 10.1898V8.62602C40.0808 8.00076 39.5742 7.49365 38.9489 7.49365C38.3236 7.49365 37.8165 8.00076 37.8165 8.62602V10.1898C37.8165 10.8151 38.3232 11.3222 38.9489 11.3222Z" fill="#755A5A"/>
<path d="M41.9137 6.79311H43.4775C44.1027 6.79311 44.6099 6.286 44.6099 5.66074C44.6099 5.03548 44.1027 4.52881 43.4775 4.52881H41.9137C41.2884 4.52881 40.7817 5.03548 40.7817 5.66074C40.7817 6.286 41.2884 6.79311 41.9137 6.79311Z" fill="#755A5A"/>
<path d="M34.4198 6.79311H35.9836C36.6089 6.79311 37.116 6.286 37.116 5.66074C37.116 5.03548 36.6089 4.52881 35.9836 4.52881H34.4198C33.7945 4.52881 33.2874 5.03548 33.2874 5.66074C33.2874 6.286 33.7945 6.79311 34.4198 6.79311Z" fill="#755A5A"/>
</svg>
