<svg width="58" height="58" viewBox="0 0 58 58" fill="none" xmlns="http://www.w3.org/2000/svg">
<g clip-path="url(#clip0)">
<path d="M22.7695 6.23047C22.7695 9.66595 25.5645 12.4609 29 12.4609C32.4355 12.4609 35.2305 9.66595 35.2305 6.23047C35.2305 2.79499 32.4355 0 29 0C25.5645 0 22.7695 2.79499 22.7695 6.23047ZM32.9648 6.23047C32.9648 8.41668 31.1862 10.1953 29 10.1953C26.8138 10.1953 25.0352 8.41668 25.0352 6.23047C25.0352 4.04425 26.8138 2.26562 29 2.26562C31.1862 2.26562 32.9648 4.04425 32.9648 6.23047Z" fill="#755A5A"/>
<path d="M29 58C29.6256 58 30.1328 57.4928 30.1328 56.8672C30.1328 56.2416 29.6256 55.7344 29 55.7344C28.3744 55.7344 27.8672 56.2416 27.8672 56.8672C27.8672 57.4928 28.3744 58 29 58Z" fill="#755A5A"/>
<path d="M1.13281 58.0004H23.9023C24.528 58.0004 25.0352 57.4932 25.0352 56.8676C25.0352 56.2419 24.528 55.7348 23.9023 55.7348H16.5391V47.1254H41.4609V55.7348H34.0977C33.472 55.7348 32.9648 56.2419 32.9648 56.8676C32.9648 57.4932 33.472 58.0004 34.0977 58.0004H56.8672C57.4928 58.0004 58 57.4932 58 56.8676C58 56.2419 57.4928 55.7348 56.8672 55.7348H43.7266V45.9926C43.7266 45.3669 43.2194 44.8598 42.5938 44.8598H36.9297V22.6566H39.1953C40.7146 22.6566 42.1241 21.9021 42.9653 20.6387L49.7622 10.4435C51.1528 8.35826 50.5864 5.54628 48.5066 4.16063C46.4219 2.76783 43.6121 3.32733 42.2221 5.41669L36.7709 13.5941H21.2291L15.7778 5.41669C14.3767 3.31521 11.5579 2.77633 9.49467 4.15983C7.4112 5.54787 6.84853 8.36042 8.23781 10.4434L15.0343 20.6383C15.8759 21.9021 17.2854 22.6566 18.8047 22.6566H21.0703V44.8598H15.4062C14.7806 44.8598 14.2734 45.3669 14.2734 45.9926V55.7348H1.13281C0.50716 55.7348 0 56.2419 0 56.8676C0 57.4932 0.50716 58.0004 1.13281 58.0004ZM22.2031 20.391H18.8047C18.045 20.391 17.3405 20.014 16.9197 19.382L10.1228 9.18658C9.43112 8.14949 9.70492 6.74219 10.7537 6.04347C11.792 5.34725 13.1959 5.62819 13.8927 6.67343L19.6802 15.3553C19.8904 15.6705 20.244 15.8597 20.6229 15.8597H37.3772C37.756 15.8597 38.1096 15.6705 38.3198 15.3553L44.1079 6.67253C44.8 5.63215 46.1988 5.34362 47.249 6.0454C48.2899 6.7388 48.5716 8.1453 47.8771 9.1868L41.0799 19.3826C40.6595 20.014 39.955 20.391 39.1953 20.391H35.7969C35.1712 20.391 34.6641 20.8982 34.6641 21.5238V44.8598H30.1328V31.7191C30.1328 31.0935 29.6257 30.5863 29 30.5863C28.3743 30.5863 27.8672 31.0935 27.8672 31.7191V44.8598H23.3359V21.5238C23.3359 20.8982 22.8288 20.391 22.2031 20.391Z" fill="#755A5A"/>
</g>
<defs>
<clipPath id="clip0">
<rect width="58" height="58" fill="white"/>
</clipPath>
</defs>
</svg>
