<svg width="58" height="58" viewBox="0 0 58 58" fill="none" xmlns="http://www.w3.org/2000/svg">
<g clip-path="url(#clip0)">
<path d="M9.29479 49.838C9.00583 49.838 8.71732 49.7287 8.49651 49.5092L8.46731 49.48C8.02613 49.0357 8.02878 48.3189 8.47262 47.8777C8.91689 47.4369 9.63375 47.4396 10.0749 47.8834L10.0926 47.9016C10.5369 48.3423 10.5391 49.0596 10.0984 49.5034C9.87713 49.7265 9.58596 49.838 9.29479 49.838Z" fill="#755A5A"/>
<path d="M29.0078 58C22.9402 58 16.9996 56.1017 12.0745 52.5532C11.5669 52.1873 11.4519 51.4797 11.8174 50.9717C12.1834 50.4641 12.8914 50.3491 13.3989 50.715C24.0739 58.4053 38.5858 57.2234 47.905 47.9043C58.3291 37.4806 58.3291 20.5198 47.905 10.0962C37.4814 -0.327896 20.5206 -0.327896 10.0969 10.0962C0.791948 19.4007 -0.40016 33.899 7.2627 44.5695C7.62732 45.0775 7.51138 45.7851 7.00295 46.1502C6.49495 46.5152 5.78738 46.3993 5.42232 45.8909C1.45747 40.3697 -0.437331 33.5768 0.0870371 26.7631C0.616716 19.8742 3.60274 13.3862 8.49463 8.49388C13.9724 3.01656 21.2547 0 29.0012 0C36.7472 0 44.03 3.01656 49.5073 8.49388C54.9846 13.9712 58.0012 21.254 58.0012 29C58.0012 36.7465 54.9846 44.0288 49.5073 49.5066C44.6097 54.4038 38.1141 57.3902 31.2173 57.9159C30.48 57.9721 29.7428 58 29.0078 58Z" fill="#755A5A"/>
<path d="M29.3934 44.6331C24.3165 44.6331 20.1866 40.5032 20.1866 35.4268C20.1866 34.8011 20.6937 34.2939 21.3194 34.2939H37.4673C38.0926 34.2939 38.6001 34.8011 38.6001 35.4268C38.5997 40.5032 34.4698 44.6331 29.3934 44.6331ZM22.5447 36.5596C23.0868 39.8496 25.9516 42.3674 29.3934 42.3674C32.8347 42.3674 35.6995 39.8496 36.242 36.5596H22.5447Z" fill="#755A5A"/>
<path d="M38.8581 29.0568C38.636 29.0568 38.4134 28.9917 38.2214 28.8608C38.1625 28.8209 36.7713 27.8709 35.3615 26.5668C33.2817 24.6428 32.2706 22.9989 32.2706 21.5408C32.2706 19.0101 34.1959 16.9512 36.5629 16.9512C37.3806 16.9512 38.1771 17.203 38.8581 17.6627C39.5391 17.203 40.3356 16.9512 41.1534 16.9512C43.5204 16.9512 45.4457 19.0101 45.4457 21.5408C45.4457 22.9989 44.4346 24.6428 42.3548 26.5668C40.9454 27.8709 39.5537 28.8209 39.4953 28.8608C39.3033 28.9917 39.0807 29.0568 38.8581 29.0568ZM36.5629 19.2168C35.4455 19.2168 34.5362 20.2593 34.5362 21.5408C34.5362 22.8117 36.9226 25.0959 38.8577 26.5332C40.7928 25.0941 43.1801 22.8082 43.1801 21.5408C43.1801 20.2593 42.2712 19.2168 41.1534 19.2168C40.6104 19.2168 40.0998 19.4615 39.7153 19.9062C39.4998 20.1549 39.1873 20.2983 38.8581 20.2983C38.5293 20.2983 38.2165 20.1549 38.0014 19.9062C37.6169 19.4615 37.1058 19.2168 36.5629 19.2168Z" fill="#755A5A"/>
<path d="M19.1414 29.0568C18.9189 29.0568 18.6967 28.9917 18.5042 28.8608C18.4458 28.8209 17.0546 27.8709 15.6448 26.5668C13.565 24.6428 12.5539 22.9989 12.5539 21.5408C12.5539 19.0101 14.4796 16.9512 16.8462 16.9512C17.6639 16.9512 18.4604 17.203 19.1414 17.6627C19.8224 17.203 20.619 16.9512 21.4367 16.9512C23.8037 16.9512 25.729 19.0101 25.729 21.5408C25.729 22.9989 24.7179 24.6428 22.6381 26.5668C21.2283 27.8709 19.8371 28.8209 19.7782 28.8608C19.5862 28.9917 19.364 29.0568 19.1414 29.0568ZM16.8462 19.2168C15.7284 19.2168 14.8195 20.2593 14.8195 21.5408C14.8195 22.8117 17.2059 25.0959 19.141 26.5332C21.0761 25.0941 23.4634 22.8082 23.4634 21.5408C23.4634 20.2593 22.554 19.2168 21.4367 19.2168C20.8938 19.2168 20.3827 19.4615 19.9981 19.9062C19.7831 20.1549 19.4702 20.2983 19.1414 20.2983C18.8127 20.2983 18.4998 20.1549 18.2847 19.9062C17.8998 19.4615 17.3891 19.2168 16.8462 19.2168Z" fill="#755A5A"/>
</g>
<defs>
<clipPath id="clip0">
<rect width="58" height="58" fill="white"/>
</clipPath>
</defs>
</svg>
