<svg width="44" height="44" viewBox="0 0 44 44" fill="none" xmlns="http://www.w3.org/2000/svg">
<g clip-path="url(#clip0)">
<path d="M39.4085 33.5321C37.3202 34.338 35.258 32.2277 33.0091 32.8665C31.7803 33.2155 30.7586 34.0394 30.1899 35.1501C28.5979 34.0394 27.0887 32.8508 25.6708 31.581C27.3502 31.9284 29.1083 32.0599 30.5979 31.0343C32.1135 29.9898 32.7436 28.1166 34.1584 26.9603C34.6562 26.553 34.0197 25.9315 33.5282 26.1434C32.1938 26.7176 29.5384 25.1895 28.1064 25.9969C27.7897 24.3931 26.8901 22.887 26.089 21.4738C25.8693 21.0855 25.2517 21.258 25.2533 21.7007C25.2604 24.2513 21.9284 27.9914 24.26 30.2631C22.1599 28.2143 20.2734 25.9803 18.6239 23.5558C20.2159 23.5211 21.5636 22.3718 22.1332 20.8137C23.0327 18.3545 21.6794 15.7944 20.5113 13.6826C20.3214 13.3391 19.8063 13.4321 19.6991 13.7889C19.1304 15.6747 17.5566 17.0154 17.1312 18.9784C16.9799 19.6763 16.9563 20.36 17.0359 21.0272C15.7086 18.7539 14.5585 16.3427 13.6211 13.7779C13.6274 13.7724 13.6314 13.7653 13.6369 13.7598C14.9807 14.6657 16.9264 14.0922 17.8976 12.7665C19.4668 10.6247 18.679 7.8228 17.9417 5.53529C17.822 5.1627 17.1517 5.06975 17.0894 5.53529C16.8106 7.60618 13.5298 9.25644 12.7862 11.2848C12.6798 10.9343 12.5861 10.5743 12.4845 10.2198C12.6664 10.1024 12.7318 9.83777 12.4868 9.69126C12.4293 9.65738 12.3679 9.6306 12.3088 9.59831C12.2592 9.41398 12.2009 9.23596 12.1536 9.04927C12.1599 9.04297 12.167 9.04139 12.1725 9.03509C12.2111 8.99177 12.2403 8.94608 12.2773 8.90197C12.4758 8.95396 12.6672 8.77751 12.6207 8.5664C12.6152 8.54198 12.6034 8.51993 12.5971 8.49551C14.7822 5.4258 13.3439 1.44943 9.85825 0.0205202C9.6755 -0.0543124 9.43524 0.0709338 9.34229 0.230052C8.50102 1.68732 7.9701 3.91497 8.32772 5.72985C7.19657 5.18555 5.83934 5.10599 4.605 5.19736C4.10165 5.23517 3.9126 5.76136 4.21508 6.13868C5.56443 7.82044 6.32457 10.2237 8.38838 11.2076C9.50693 11.7409 10.9477 11.807 11.8842 11.0028C12.1907 12.3285 12.5751 13.6432 13.0248 14.9406C11.3604 13.7172 8.88463 13.3155 7.08314 13.7551C6.72315 13.8425 6.52465 14.3978 6.84682 14.6499C7.94883 15.5124 8.64438 16.8649 9.53292 17.9819C8.98625 18.8925 8.25446 19.6322 7.36671 20.2505C7.08786 20.4443 7.01776 20.8098 7.26116 21.0682C9.5022 23.4471 13.9819 23.1824 15.1792 19.9961C15.9433 21.5069 16.798 22.9792 17.7401 24.3978C16.0457 23.3076 14.078 22.7657 12.0103 23.3738C11.5833 23.4998 11.4439 24.0331 11.7519 24.3529C13.3195 25.9835 14.0418 28.0426 16.3695 28.761C17.8354 29.2139 19.358 29.0233 20.6389 28.2592C21.6802 29.5006 22.794 30.679 23.9654 31.7913C21.3651 30.9398 18.6404 31.158 16.1072 32.4317C15.7527 32.6105 15.7425 33.0997 15.9874 33.3628C18.7507 36.3443 23.3124 36.6349 26.0166 33.6133C27.3502 34.7208 28.7499 35.7393 30.2064 36.6554C27.4715 36.6877 26.4656 41.2234 25.7716 43.2344C25.6093 43.7046 26.0993 44.0733 26.5231 43.9859C28.3411 43.6125 30.427 43.1383 31.5731 41.5313C32.423 40.3395 32.6334 38.7066 31.707 37.5503C33.6936 38.6727 35.7755 39.6046 37.9331 40.3112C38.2718 40.4222 38.5113 39.8803 38.1796 39.7267C36.0812 38.7523 34.093 37.6653 32.2064 36.4798C35.0556 36.8689 38.453 37.0193 39.8874 34.1536C40.0355 33.8582 39.7818 33.388 39.4085 33.5321ZM5.6558 6.23005C6.66092 6.24187 7.58333 6.47109 8.60184 6.63651C9.0532 7.70622 9.92599 8.51363 11.4022 8.71292C11.4061 8.78696 11.4266 8.85628 11.4612 8.92009C11.4794 9.02485 11.503 9.12962 11.5219 9.2336C11.1595 9.08708 10.7933 8.94923 10.4443 8.7783C9.77475 8.4514 9.12016 8.08039 8.48369 7.69283C8.24816 7.54947 7.96065 7.9 8.18121 8.08432C9.15403 8.89567 10.4159 9.81493 11.7015 10.1639C11.7165 10.2371 11.7283 10.3112 11.744 10.3852C8.887 11.6156 7.17294 8.39783 5.6558 6.23005ZM11.6125 6.28362C11.3667 5.55577 11.2619 4.82871 10.9311 4.13553C10.8783 4.02446 10.7326 4.07487 10.6956 4.16625C10.2836 5.19263 10.5995 6.90985 11.3407 8.02446C8.95632 6.3104 9.09416 3.61564 10 1.05636C12.5892 2.14813 13.3541 5.06581 12.1418 7.40689C11.948 7.03982 11.744 6.67353 11.6125 6.28362ZM16.5317 8.58452C16.9681 8.16073 17.3226 7.70937 17.5699 7.20839C17.9386 8.4254 18.167 9.69441 17.7763 10.9224C17.1808 12.7941 15.2399 13.6952 13.5959 12.4687C13.5755 12.4538 13.5558 12.449 13.5361 12.4396C14.9035 11.9985 16.223 10.9823 16.5853 9.53529C16.6893 9.12095 16.1481 8.91693 15.9173 9.25329C15.2903 10.1662 14.6208 10.9508 13.6826 11.4896C14.2253 10.3175 15.6676 9.42265 16.5317 8.58452ZM8.42146 20.731C9.13906 20.1032 9.62981 19.3644 9.96143 18.4798C10.4427 18.9926 10.9941 19.4203 11.6944 19.6684C12.0182 19.7834 12.3679 19.8267 12.7153 19.8165C12.672 19.8275 12.6302 19.8433 12.5869 19.8527C11.9 20.0103 11.2013 20.0678 10.4979 20.0473C10.1158 20.0363 10.1347 20.5892 10.4979 20.6286C11.5581 20.7452 12.8508 20.6909 13.8835 20.2206C12.3947 21.7748 10.2458 22.2694 8.42146 20.731ZM14.2655 18.1852C13.8661 17.9394 13.3817 17.785 12.9957 17.5306C12.3561 17.1083 11.8094 16.5853 11.362 15.9638C11.2391 15.7937 10.9658 15.9425 11.0753 16.1316C11.4675 16.8082 11.952 17.436 12.5554 17.9394C12.8476 18.1836 13.2052 18.479 13.5873 18.6775C11.9189 19.2722 9.74245 16.2387 8.31039 14.6152C9.45494 14.4994 10.6003 14.7373 11.6298 15.3132C12.7838 15.9591 13.3746 16.8972 14.171 17.8685C14.2127 17.9646 14.2521 18.0615 14.2946 18.1568C14.2852 18.1686 14.2749 18.1741 14.2655 18.1852ZM18.8673 17.5274C19.3439 16.657 19.8819 15.9095 20.2419 15.0398C20.8957 16.2505 21.4983 17.5408 21.5235 18.9177C21.5526 20.4963 20.5467 22.1339 19.0162 22.4152C19.8228 21.2564 20.4435 19.7354 20.2663 18.3805C20.2237 18.0583 19.7787 17.9488 19.6708 18.3002C19.4518 19.0138 19.3872 19.7629 19.143 20.475C18.9154 21.1375 18.6089 21.7582 18.2734 22.3695C17.8575 20.7208 18.0063 19.0981 18.8673 17.5274ZM15.7937 27.1572C14.6885 26.4892 14.03 25.3281 13.247 24.3057C15.6046 23.9945 17.5353 25.3604 19.4171 26.7334C19.4581 26.787 19.4998 26.8405 19.5408 26.8949C19.043 26.7885 18.5199 26.7704 18.0268 26.5963C17.1651 26.2915 16.4167 25.7944 15.7661 25.1556C15.6109 25.0028 15.3147 25.2092 15.4534 25.3974C16.3364 26.5987 18.4222 28.1308 20.0118 27.5101C20.015 27.514 20.0174 27.518 20.0205 27.5219C18.6263 27.9748 17.0942 27.9425 15.7937 27.1572ZM28.0961 28.3167C28.1899 27.8992 28.2253 27.4888 28.2198 27.0839C29.5865 26.464 30.9193 27.1501 32.3049 27.2856C31.837 27.8362 31.4289 28.4349 30.954 29.0327C29.874 30.3915 28.5168 30.735 27.0185 30.761C27.4778 30.4506 27.9244 30.1182 28.3703 29.7905C28.8846 29.4124 29.4549 29.0603 29.8779 28.5766C30.1269 28.2923 29.8181 27.8795 29.4754 28.0544C28.9035 28.3458 28.4222 28.813 27.9307 29.2194C27.8598 29.2777 27.7881 29.336 27.7172 29.3943C27.8764 29.0548 28.0111 28.6956 28.0961 28.3167ZM17.4778 33.1076C19.5384 32.2497 21.7558 32.1592 23.8732 32.8287C22.8279 32.9177 21.7889 33.0816 20.7263 33.0493C20.3577 33.0382 20.3829 33.5613 20.7263 33.6062C21.9669 33.7684 23.3959 33.8976 24.6365 33.555C22.3096 34.8452 19.6196 34.8177 17.4778 33.1076ZM25.4092 30.3474C25.4116 30.2994 25.4045 30.2521 25.3848 30.2072C25.9315 29.3896 26.7822 27.9733 26.4593 26.9902C26.4049 26.824 26.1812 26.7885 26.0875 26.9414C25.8252 27.3683 25.8307 27.9142 25.7133 28.3955C25.5818 28.9351 25.3801 29.4455 25.1359 29.9417C23.566 28.4979 24.9256 26.3057 25.5888 24.7665C25.8102 24.2529 25.9796 23.7692 26.082 23.2769C27.3502 25.7614 28.171 29.0264 25.4092 30.3474ZM29.9504 41.4912C29.169 42.0843 28.2214 42.3766 27.2643 42.5908C27.8299 40.7389 28.5341 38.2356 30.2434 37.5503C30.0867 37.8756 29.974 38.2285 29.822 38.5514C29.5731 39.08 29.295 39.6007 28.9988 40.104C28.8807 40.3049 29.1753 40.5514 29.3313 40.3608C29.7188 39.8882 30.063 39.4014 30.3529 38.8626C30.5034 38.5822 30.672 38.2765 30.7925 37.9599C31.5187 39.1855 31.0611 40.6483 29.9504 41.4912ZM31.7133 35.7551C32.4695 35.2604 33.3131 34.9217 34.1859 34.6696C34.4348 34.5979 34.397 34.1883 34.1229 34.2048C32.8949 34.2781 31.8346 34.8334 30.9618 35.6731C30.9366 35.6558 30.9114 35.6385 30.8862 35.6219C32.0418 33.9693 33.7803 33.2462 35.833 33.9071C36.72 34.1922 37.518 34.5247 38.36 34.5562C36.5577 36.0213 34.0197 35.8 31.7133 35.7551Z" fill="#755A5A"/>
</g>
<defs>
<clipPath id="clip0">
<rect width="44" height="44" fill="white"/>
</clipPath>
</defs>
</svg>
