<svg width="44" height="44" viewBox="0 0 44 44" fill="none" xmlns="http://www.w3.org/2000/svg">
<g clip-path="url(#clip0)">
<path d="M31.9258 7.69069C31.5036 7.61309 31.1045 7.89213 31.0277 8.31133L29.4931 16.7223C21.1837 35.4315 0.734528 42.4268 0.528365 42.4954C0.123858 42.6298 -0.0949387 43.0667 0.039725 43.4712C0.147061 43.795 0.448529 43.9999 0.771911 43.9999C0.852606 43.9999 0.934762 43.9872 1.01546 43.9606C1.22815 43.8896 22.3743 36.6724 30.9419 17.263C30.9666 17.2074 30.9844 17.1491 30.9952 17.0897L32.5464 8.58839C32.6232 8.16928 32.3449 7.76718 31.9258 7.69069Z" fill="#755A5A"/>
<path d="M34.0008 0.120923C33.8402 0.0186577 33.6472 -0.0203578 33.4585 0.0105796C30.2928 0.541672 27.6204 3.56495 26.8091 7.53379C25.9978 11.5038 27.2708 15.3291 29.9771 17.0528C30.1018 17.1323 30.2457 17.1736 30.3916 17.1736C30.4341 17.1736 30.4766 17.1698 30.519 17.1632C33.685 16.6321 36.3571 13.6089 37.1687 9.64003C37.98 5.6699 36.7071 1.84465 34.0008 0.120923ZM35.6557 9.3304C35.0089 12.4957 32.9374 15.0145 30.5583 15.5803C28.5914 14.1325 27.6744 11.0074 28.3216 7.84248C28.9684 4.67681 31.04 2.15798 33.419 1.5926C35.386 3.04073 36.303 6.1655 35.6557 9.3304Z" fill="#755A5A"/>
<path d="M24.7369 20.7012C24.0487 16.2692 21.257 12.7859 17.7906 12.034C17.6046 11.9939 17.4093 12.0236 17.2437 12.1186C14.1664 13.8797 12.5616 18.0415 13.2498 22.4743C13.938 26.9064 16.7292 30.3897 20.196 31.1415C20.2501 31.1535 20.3049 31.1593 20.3596 31.1593C20.4932 31.1593 20.6255 31.1246 20.7429 31.0571C23.8198 29.2962 25.4246 25.134 24.7369 20.7012ZM20.2323 29.5606C17.5583 28.8119 15.3371 25.8531 14.7759 22.2373C14.2148 18.622 15.4341 15.1332 17.7552 13.6152C20.4288 14.3636 22.6504 17.3224 23.2116 20.9381C23.7727 24.5532 22.5531 28.0422 20.2323 29.5606Z" fill="#755A5A"/>
<path d="M43.8718 21.5797C41.9195 18.6283 37.6574 17.2866 33.2605 18.2446C28.8651 19.2022 25.5497 22.1937 25.0108 25.6898C24.9815 25.8793 25.0243 26.0731 25.1301 26.2333C26.6624 28.5502 29.6181 29.8745 32.9435 29.8745C33.8552 29.8745 34.7954 29.7745 35.741 29.5683C40.1363 28.6112 43.4521 25.6192 43.991 22.1231C44.0204 21.9337 43.9775 21.7399 43.8718 21.5797ZM35.4126 28.0604C31.8254 28.8416 28.2557 27.8435 26.5917 25.6285C27.1769 22.9244 30.0033 20.5345 33.5896 19.7534C37.1764 18.9722 40.7458 19.9699 42.4105 22.185C41.825 24.8893 38.999 27.2797 35.4126 28.0604Z" fill="#755A5A"/>
<path d="M28.6714 39.0232C27.9037 36.1393 24.8627 33.9285 21.1042 33.5209C17.3468 33.1148 13.9001 34.6224 12.5284 37.2736C12.4404 37.4442 12.4188 37.6418 12.4682 37.827C13.2363 40.7109 16.2773 42.9217 20.0354 43.3293C20.4433 43.3733 20.8478 43.3953 21.2466 43.3953C24.5173 43.3953 27.3884 41.9403 28.6112 39.5766C28.6992 39.4057 28.7208 39.2085 28.6714 39.0232ZM20.2014 41.7949C17.2565 41.4753 14.7801 39.8195 14.0487 37.7194C15.2163 35.8248 17.9906 34.7386 20.9374 35.0563C23.8827 35.3759 26.3587 37.0317 27.0901 39.1317C25.9233 41.0264 23.1467 42.1125 20.2014 41.7949Z" fill="#755A5A"/>
<path d="M19.2688 21.1933C19.0512 20.8274 18.5772 20.707 18.211 20.9243C17.8447 21.142 17.7243 21.616 17.942 21.9822C17.9617 22.0151 19.8884 25.3228 19.6437 30.6332C19.624 31.0593 19.9536 31.4202 20.3793 31.4399C20.3917 31.4403 20.4036 31.4407 20.4156 31.4407C20.8255 31.4407 21.167 31.118 21.1859 30.7043C21.4515 24.9364 19.358 21.3435 19.2688 21.1933Z" fill="#755A5A"/>
<path d="M34.8298 23.6213C34.672 23.2257 34.2227 23.0308 33.8271 23.1902C33.7896 23.2049 30.0362 24.6808 25.5841 24.6808C25.158 24.6808 24.8122 25.0266 24.8122 25.4527C24.8122 25.8787 25.158 26.2246 25.5841 26.2246C30.3295 26.2246 34.2351 24.6892 34.3988 24.624C34.7947 24.4659 34.9877 24.0169 34.8298 23.6213Z" fill="#755A5A"/>
</g>
<defs>
<clipPath id="clip0">
<rect width="44" height="44" fill="white"/>
</clipPath>
</defs>
</svg>
