<svg width="44" height="44" viewBox="0 0 44 44" fill="none" xmlns="http://www.w3.org/2000/svg">
<path d="M43.9363 33.7453C43.5685 32.4089 41.7294 31.7891 39.7487 32.3342C38.8684 32.5765 38.0883 33.017 37.5519 33.5747C37.24 33.899 37.0223 34.2542 36.9067 34.6154C34.3597 34.0707 31.8984 33.3471 29.5338 32.4473C29.7805 32.4145 30.0273 32.3717 30.2731 32.3182C32.59 31.8131 34.5715 30.4361 35.8528 28.4408C35.957 28.2783 35.9926 28.0811 35.9515 27.8923C35.9104 27.7037 35.7959 27.5391 35.6336 27.4347C31.6457 24.8742 26.3604 25.9172 23.6278 29.7244C22.4087 29.0566 21.2222 28.3356 20.0702 27.5621C19.1142 26.9201 18.1823 26.2399 17.2733 25.5265C18.0343 25.5199 18.8455 25.4046 19.6547 25.1819C22.7137 24.3397 24.6503 22.3604 24.1597 20.578C23.9057 19.6552 23.0576 18.9955 21.7719 18.7206C20.653 18.4813 19.2896 18.5551 17.9332 18.9286C17.6008 19.0201 17.2718 19.129 16.9548 19.2525C15.1469 19.9585 13.8884 21.0736 13.4895 22.2202C11.8702 20.6472 10.3475 18.9491 8.9312 17.1334C8.00857 15.9505 7.18452 14.7847 6.45139 13.6634C7.01359 14.0003 7.61369 14.2833 8.24714 14.504C9.28251 14.8647 10.3511 15.0439 11.416 15.0439C12.8443 15.0439 14.2659 14.7213 15.59 14.0814L16.3056 13.7355C16.6675 13.5607 16.8193 13.1252 16.6442 12.7632L16.2983 12.0476C16.1455 11.7315 15.9744 11.4212 15.7895 11.1255C15.5764 10.7845 15.1272 10.6809 14.7863 10.894C14.4454 11.1071 14.3417 11.5563 14.5548 11.8973C14.7119 12.1485 14.8574 12.4122 14.9874 12.681L15.0164 12.7412L14.9563 12.7702C12.9954 13.7179 10.783 13.8453 8.72624 13.1287C6.99778 12.5265 5.55532 11.3875 4.57581 9.87584L10.1981 11.8374C10.2775 11.865 10.3584 11.8781 10.4379 11.8781C10.739 11.8781 11.0206 11.69 11.1254 11.3897C11.2579 11.01 11.0575 10.5949 10.6779 10.4624L5.0513 8.49964C6.29567 8.07975 7.61696 7.9664 8.9257 8.17565C10.5381 8.43338 12.0189 9.15543 13.2083 10.2638C13.5025 10.5379 13.9633 10.5217 14.2372 10.2275C14.5114 9.93333 14.4951 9.47271 14.201 9.19857C12.7992 7.89232 11.0545 7.04145 9.15549 6.73792C7.21125 6.42709 5.24363 6.71738 3.46489 7.57693L3.11754 7.74476C1.94217 5.2824 1.43703 3.67847 1.42423 3.63713C1.30632 3.25282 0.899063 3.03686 0.51458 3.15476C0.130182 3.27284 -0.0856927 3.6801 0.0322133 4.06441C0.115143 4.33443 2.12728 10.7607 7.74621 17.9819C8.16386 18.5186 8.59071 19.0454 9.02624 19.5621L8.63892 20.1233C7.18108 22.236 6.63323 24.7899 7.09626 27.3147C7.55938 29.8394 8.97786 32.0326 11.0905 33.4904L11.7446 33.9417C11.867 34.0262 12.0114 34.0706 12.1581 34.0706C12.2019 34.0706 12.2459 34.0666 12.2895 34.0586C12.4795 34.0237 12.6476 33.9149 12.7573 33.7559L13.2086 33.1018C14.6664 30.9891 15.2142 28.4352 14.7512 25.9105C14.7077 25.6737 14.656 25.4398 14.5959 25.2091C16.0727 26.4854 17.6179 27.6674 19.2267 28.7496C19.4092 28.8724 19.5926 28.9935 19.7767 29.1138C17.5175 33.0427 18.6175 38.1295 22.4127 40.7484C22.5351 40.8329 22.6795 40.8772 22.8263 40.8772C22.87 40.8772 22.914 40.8733 22.9576 40.8653C23.1475 40.8304 23.3158 40.7216 23.4255 40.5626C25.3173 37.8209 25.4372 34.3743 24.0362 31.5895C25.7512 32.4717 27.5256 33.2538 29.3548 33.9348C28.594 34.799 28.5916 36.4201 29.4277 37.9471C30.1927 39.3442 31.402 40.1926 32.4737 40.1926C32.784 40.1926 33.0829 40.1214 33.3559 39.9719C33.9896 39.6249 34.3712 38.9107 34.4031 38.0126C34.4306 37.2391 34.2042 36.3723 33.7657 35.5716C33.7168 35.4822 33.6653 35.3949 33.6123 35.3092C34.8645 35.654 36.1386 35.9551 37.4339 36.2109C37.4814 36.2204 37.5289 36.2249 37.5757 36.2249C37.9164 36.2249 38.2207 35.9846 38.2891 35.6378C38.3118 35.5229 38.3054 35.4092 38.2762 35.3035C38.2764 35.3033 38.2766 35.3031 38.2767 35.3029C38.408 35.1614 38.3467 34.8479 38.6007 34.5838C38.9531 34.2175 39.5123 33.9092 40.1346 33.7377C41.4336 33.3803 42.422 33.732 42.5318 34.1314C42.6419 34.5313 41.973 35.3401 40.6742 35.6976C40.2763 35.8071 39.8667 35.8565 39.4917 35.8402C39.0895 35.8232 38.7502 36.1344 38.7329 36.5361C38.7155 36.9378 39.0271 37.2776 39.4288 37.2949C39.4986 37.2979 39.5686 37.2994 39.6388 37.2994C40.1055 37.2994 40.5829 37.233 41.0608 37.1014C43.0415 36.5567 44.3044 35.0824 43.9363 33.7453ZM12.0105 32.275L11.9727 32.3298L11.9179 32.292C10.1253 31.0551 8.92174 29.1942 8.52884 27.052C8.19721 25.2443 8.47882 23.4198 9.31748 21.8167L10.4442 27.7261C10.5107 28.075 10.816 28.3179 11.1585 28.3179C11.2037 28.3179 11.2496 28.3136 11.2957 28.3049C11.6906 28.2296 11.9497 27.8484 11.8744 27.4535L10.7558 21.5869C12.0915 22.785 12.9904 24.3799 13.3195 26.1736C13.7122 28.3156 13.2475 30.4824 12.0105 32.275ZM20.3898 20.0399C20.7757 20.0399 21.1399 20.0745 21.4673 20.1446C22.1744 20.2958 22.6561 20.6024 22.7558 20.9646C22.948 21.6627 21.9104 22.7751 20.1784 23.4711C20.0511 21.9016 19.4223 20.8668 18.805 20.2147C19.3477 20.0993 19.8871 20.0399 20.3898 20.0399ZM14.8311 23.1464C14.6617 22.5311 15.5108 21.4673 17.1781 20.7361C17.659 21.045 18.6883 21.9336 18.7431 23.9041C17.7974 24.1005 16.8639 24.1251 16.1197 23.9659C15.4124 23.8145 14.9307 23.5082 14.8311 23.1464ZM22.6307 39.0813C20.3292 37.1114 19.5062 33.9414 20.4502 31.1449L21.2772 35.4819C21.3437 35.8308 21.649 36.0737 21.9915 36.0737C22.0366 36.0737 22.0827 36.0695 22.1287 36.0608C22.5236 35.9854 22.7828 35.6043 22.7076 35.2092L21.8933 30.9386C23.7322 33.2155 24.0727 36.4425 22.6307 39.0813ZM26.2128 30.7449L29.0952 30.0954C29.4875 30.007 29.7338 29.6174 29.6454 29.2252C29.557 28.8329 29.1672 28.5868 28.7752 28.6751L25.958 29.31C26.8889 28.496 28.0149 27.9247 29.2566 27.654C30.9412 27.2866 32.6628 27.5091 34.1805 28.2784C33.1208 29.6092 31.648 30.5283 29.9632 30.8955C28.6999 31.1709 27.4159 31.1147 26.2128 30.7449ZM32.6569 38.6951C32.2933 38.8939 31.3523 38.4296 30.7052 37.2481C30.0584 36.0666 30.1737 35.0234 30.5374 34.8242C30.7069 34.7314 30.9966 34.7874 31.3125 34.9739C31.7502 35.2324 32.1791 35.7052 32.4889 36.2714C32.7989 36.8374 32.9663 37.4535 32.9483 37.9614C32.9356 38.328 32.8266 38.6022 32.6569 38.6951Z" fill="#755A5A"/>
</svg>
