<svg width="44" height="44" viewBox="0 0 44 44" fill="none" xmlns="http://www.w3.org/2000/svg">
<g clip-path="url(#clip0)">
<path d="M41.0775 8.56317C42.0692 7.9861 44 6.06824 44 4.61092C44 2.43808 40.234 2.87439 38.3917 3.9431C37.2192 4.62475 36.6554 5.87523 36.8721 6.99C33.4317 8.85088 31.3857 10.2381 30.3141 10.9105C30.3108 10.1751 30.5169 9.20959 30.7063 8.49923C31.819 8.53051 32.9652 7.83038 33.5184 6.55413C33.6607 6.22576 33.5096 5.84429 33.1812 5.70206C32.8529 5.55984 32.4715 5.71091 32.3292 6.03928C31.9897 6.82277 31.35 7.20553 30.7795 7.20553C29.7592 7.20553 29.2508 6.00886 29.8048 4.94513C30.378 3.84402 32.1791 2.32714 32.6049 2.54654C32.6519 2.57094 32.8274 2.81397 32.8274 3.55544C32.8274 3.61946 32.826 3.68434 32.8236 3.74991C32.8097 4.1075 33.0882 4.40854 33.4459 4.42237C33.8038 4.43526 34.1045 4.15751 34.1184 3.80002C34.1539 2.88711 34.0134 1.81873 33.2035 1.3973C31.7304 0.629622 29.3664 2.98103 28.6553 4.34658C27.923 5.75302 28.3105 7.38188 29.4659 8.12016C29.1952 9.12365 28.8592 10.7108 29.1043 11.721C27.3956 12.8837 25.4721 14.2963 23.6317 15.7779C23.967 14.6647 24.306 13.2293 24.2325 12.0655C24.2328 12.0654 24.2332 12.0654 24.2334 12.0652C25.4659 11.6391 26.1902 10.3025 26.0407 8.93708C25.888 7.49454 24.5549 4.34314 22.8866 4.52868C21.2073 4.70639 20.5729 8.02262 20.727 9.50031C20.8704 10.8486 21.7841 11.9058 22.9397 12.1471C23.033 13.6413 22.25 16.0077 21.693 17.385C21.6926 17.3853 21.6923 17.3856 21.6919 17.3859C18.8706 19.7971 16.5295 22.1745 16.5202 22.1913C15.2072 23.5337 15.6335 23.1067 15.254 23.4997C14.0198 22.4018 14.4838 20.0337 15.0523 18.4734C15.0582 18.4734 15.0696 18.4734 15.0737 18.4734C16.3324 18.4734 17.4536 17.5266 17.8009 16.1703C18.2218 14.5288 17.9392 10.8971 16.0472 10.8971C14.4144 10.8971 12.519 14.0465 12.519 15.6684C12.519 16.7082 13.0225 17.6281 13.8039 18.112C13.0476 20.2315 12.7059 22.9417 14.371 24.4474C14.3708 24.4476 14.3705 24.4478 14.3704 24.448C12.1794 26.8356 10.8615 28.5523 10.4361 29.0708C9.89517 28.7616 9.4153 26.7836 9.29301 26.1712C10.2788 25.7117 11.0242 24.5887 10.9492 23.1782C10.9302 22.8207 10.6275 22.5455 10.2679 22.5655C9.91056 22.5844 9.63625 22.8895 9.65524 23.2467C9.71428 24.3704 8.99644 25.1038 8.27294 25.1038L8.25128 25.1037C7.51016 25.0896 6.90705 24.3389 6.90705 23.4305L6.90748 23.3908C6.91865 22.8054 7.15696 21.8828 7.48696 21.1472C7.87324 20.2865 8.23977 19.9968 8.34822 19.9968C8.4064 19.998 8.71878 20.1754 9.07791 20.9745C9.22469 21.3009 9.60806 21.4464 9.93453 21.2998C10.2608 21.1531 10.4066 20.7696 10.2599 20.4432C9.62061 19.0209 8.88077 18.7109 8.37348 18.7012L8.34762 18.7009C6.6648 18.7009 5.61103 21.9701 5.61103 23.4305C5.61103 24.986 6.64881 26.2402 8.01298 26.3849C8.21742 27.4503 8.70873 29.408 9.64149 30.0957C9.51061 30.2788 7.4433 32.905 5.27777 36.4743C5.27751 36.4746 5.27734 36.475 5.27708 36.4754C5.23317 34.9265 5.03629 33.7096 4.68876 32.8429C4.69563 32.8342 5.71828 32.1689 5.71828 30.6473C5.71828 30.1937 5.61722 29.729 5.42541 29.3048C4.82402 27.9734 2.60126 25.4016 1.04897 26.1058C-0.464552 26.7888 -0.0690688 30.1216 0.554835 31.5042C1.12417 32.7628 2.34267 33.4541 3.48504 33.3228C4.22684 35.1669 3.93406 38.7946 3.93431 38.8032C2.9322 40.639 2.46135 41.756 2.41907 41.8562C2.28174 42.1862 2.43806 42.5654 2.76892 42.7028C3.10365 42.8417 3.48039 42.6807 3.61557 42.3538C3.61987 42.3426 3.71483 42.1173 3.90905 41.7073C4.46962 41.4306 7.27959 40.0894 9.07826 40.0743C9.40078 41.2129 10.5483 42.0955 12.0013 42.0955C13.2661 42.0955 16.6205 41.3232 16.681 39.5842V39.5392C16.681 37.8322 13.4008 36.7989 12.0592 36.7523C10.6088 36.7022 9.38634 37.573 9.06588 38.7772C9.06579 38.7776 9.06571 38.7782 9.06554 38.7786C7.74434 38.791 6.06212 39.3655 4.84009 39.8675C4.84026 39.8671 4.84044 39.8669 4.84061 39.8665C7.3785 35.1154 10.2577 31.4517 10.3989 31.243C11.0247 31.7089 13.6603 33.5984 15.7342 33.9885C15.7576 34.073 15.7673 34.8358 16.4686 35.5703C17.1673 36.3028 18.0498 36.5517 19.0049 36.5517C22.9831 36.5517 25.0921 34.2377 21.6571 32.2038C20.8363 31.7173 19.5747 31.1844 18.6058 31.1844C17.4265 31.1844 16.4193 31.7969 15.9718 32.7161C14.4281 32.4299 12.1302 30.9144 11.186 30.2133C11.9462 29.2411 12.6928 28.3212 13.6082 27.2589C13.6083 27.2588 13.6083 27.2588 13.6083 27.2587C15.2351 27.7448 17.7486 28.2995 19.4372 28.0376C19.445 28.0463 20.062 29.6173 22.0648 29.6173C23.6986 29.6173 27.1738 27.761 26.8196 26.0079C26.4957 24.3851 23.1493 24.0131 21.6717 24.3121C20.3572 24.5746 19.3759 25.579 19.24 26.7579C17.9107 26.9649 15.8492 26.5257 14.5566 26.1791C15.4764 25.1496 16.4774 24.083 17.5629 22.9931C18.2742 22.6472 20.9287 21.4148 22.6498 21.4C22.9704 22.53 24.0847 23.3723 25.4477 23.4191C25.4884 23.4205 25.5304 23.4212 25.5736 23.4212C26.8385 23.4212 30.1931 22.6492 30.2528 20.9095C30.2841 19.9983 29.4255 19.3515 28.6138 18.9334C28.2957 18.7695 27.905 18.8945 27.7411 19.2126C27.5772 19.5306 27.7022 19.9214 28.0203 20.0853C28.7984 20.4863 28.9576 20.8024 28.9577 20.8661C28.9554 20.9306 28.7483 21.2708 27.833 21.6373C27.1628 21.9057 26.1549 22.1464 25.4918 22.1241C24.6353 22.0947 23.8307 21.5011 23.8527 20.691C23.8776 19.9713 24.6514 19.2672 25.7819 19.3881C26.1388 19.4261 26.4569 19.1682 26.4948 18.8124C26.5326 18.4565 26.275 18.1374 25.9191 18.0995C24.2712 17.9246 22.9669 18.8655 22.6379 20.1046C21.8462 20.1119 20.9249 20.3209 20.05 20.5958C24.2727 16.6881 28.0505 14.0624 28.2351 13.9201C29.6744 15.2928 32.1336 15.19 34.0728 14.7323C34.511 15.6702 35.5285 16.298 36.7238 16.298C38.3102 16.298 41.7327 14.6937 41.489 12.9608C41.25 11.2637 37.8263 10.7792 36.4456 10.973C35.0523 11.17 33.9795 12.2133 33.854 13.452C32.4896 13.7852 30.4543 13.9956 29.3246 13.1501C31.8074 11.4266 34.5114 9.74377 37.4469 8.15162C38.3172 9.12545 39.8561 9.27739 41.0775 8.56317ZM38.1369 6.31789C38.2103 5.82719 38.5498 5.35032 39.0431 5.06355C39.6331 4.72057 40.9082 4.35431 41.868 4.35431C42.4658 4.35431 42.6697 4.49602 42.6922 4.534C42.9194 4.95003 41.5312 6.80034 40.427 7.44272C39.2904 8.10151 37.9669 7.49084 38.1369 6.31789ZM3.21416 32.0427C2.61982 32.0427 2.02634 31.6117 1.73604 30.9707C1.5175 30.4869 1.2963 29.5064 1.2963 28.5682C1.2963 27.6214 1.5261 27.313 1.58307 27.2871C1.58565 27.2853 1.59777 27.2811 1.6263 27.2811C2.27341 27.2811 3.78298 28.8161 4.24472 29.8382C4.72124 30.8934 4.19806 32.0427 3.21416 32.0427ZM10.2808 39.366C10.3059 38.6386 11.0514 38.0468 11.9429 38.0468C12.6067 38.0468 13.6095 38.3641 14.2417 38.6584C15.0978 39.0575 15.3855 39.4308 15.3855 39.5405C15.3838 39.6053 15.1764 39.9457 14.2616 40.312C13.5437 40.5996 12.6151 40.8001 12.0018 40.8001C10.9824 40.8001 10.2809 40.1049 10.2809 39.4049V39.366H10.2808ZM17.032 33.6255C17.1319 32.9277 17.93 32.3632 18.8971 32.5016C20.0857 32.6727 22.0883 33.8142 22.0883 34.3485C22.0442 34.6552 20.6214 35.2565 19.005 35.2565C17.527 35.2565 16.929 34.3234 17.032 33.6255ZM13.8149 15.6686C13.8149 14.3378 15.5914 12.0776 16.0611 12.195C16.5064 12.3077 16.861 14.6135 16.5458 15.8492C16.3488 16.6198 15.7294 17.1779 15.0737 17.1779C14.3083 17.1779 13.8149 16.449 13.8149 15.6686ZM21.9259 25.5835C22.5578 25.4551 23.8136 25.5058 24.7319 25.7943C25.3738 25.9955 25.5405 26.215 25.55 26.2625V26.2712C25.55 26.8469 23.5765 28.0594 22.465 28.2823C21.3816 28.4935 20.5187 27.832 20.5187 27.0427C20.5187 26.3705 21.1234 25.7433 21.9259 25.5835ZM22.0158 9.36393C21.9557 8.81178 22.0682 7.73998 22.3865 6.83789C22.6742 6.02415 22.9661 5.82366 23.0266 5.81765C23.5686 5.81765 24.7639 8.12807 24.7639 9.29217C24.7639 10.1344 24.2474 10.8238 23.5614 10.8964C22.8071 10.976 22.1117 10.2754 22.0158 9.36393ZM37.1148 12.2278C37.8042 12.2278 38.6241 12.3591 39.2538 12.5699C40.014 12.8239 40.1989 13.0856 40.2067 13.147C40.2067 13.6899 37.9171 15.0026 36.7243 15.0026C35.8929 15.0026 35.1373 14.4621 35.1373 13.6973C35.1374 12.9939 35.7911 12.2278 37.1148 12.2278Z" fill="#755A5A"/>
</g>
<defs>
<clipPath id="clip0">
<rect width="44" height="44" fill="white"/>
</clipPath>
</defs>
</svg>
