<svg width="44" height="44" viewBox="0 0 44 44" fill="none" xmlns="http://www.w3.org/2000/svg">
<g clip-path="url(#clip0)">
<path d="M28.8589 25.253C29.3126 25.253 29.7805 25.2068 30.2601 25.1139C32.605 24.66 35.116 23.1147 37.7235 20.5208C43.143 15.1296 43.9652 5.44817 43.9976 5.03868C44.0163 4.80186 43.9304 4.56878 43.7627 4.40078C43.595 4.23277 43.362 4.14628 43.1251 4.16482C42.7169 4.19646 33.0655 5.0016 27.6473 10.3915C25.0371 12.988 23.4719 15.4824 22.9952 17.8051C22.6086 19.6892 22.9548 21.3936 23.9955 22.7865C19.6322 26.3078 14.9872 29.2232 11.3248 31.3073C10.8925 31.5532 10.4672 31.7915 10.0494 32.0224C10.6198 30.7952 11.2645 29.0286 11.763 26.623C14.7367 26.5099 17.761 23.6301 18.1628 17.2047C18.5413 11.1494 13.3309 6.03065 13.1089 5.81572C12.8218 5.53762 12.3752 5.50991 12.0559 5.74987C11.8088 5.93546 6.00139 10.3654 5.62295 16.4208C5.25149 22.363 7.48323 25.5768 10.1434 26.4083C9.86893 27.7101 9.5594 28.7731 9.26763 29.611C8.39292 32.1231 7.49117 33.2088 7.46871 33.2355C7.46813 33.2362 7.46756 33.2367 7.46708 33.2374C7.28761 33.4449 7.06867 33.6157 6.8246 33.7411C3.09047 35.6603 0.535236 36.7288 0.500737 36.7431C0.0865554 36.9154 -0.109641 37.3908 0.0625685 37.805C0.192347 38.1174 0.494525 38.3057 0.812949 38.3057C0.916829 38.3057 1.02252 38.2856 1.1244 38.2433C1.17237 38.2233 5.99385 36.2084 12.1076 32.7311C13.0117 32.2168 13.9753 31.6522 14.9791 31.0413C15.5523 31.4923 17.5569 32.8711 21.6514 33.8236C21.7319 36.528 24.2992 39.3136 30.0983 39.8047C30.3612 39.8269 30.622 39.8375 30.8812 39.8375C36.0371 39.8375 40.3528 35.634 40.5429 35.4463C40.8271 35.1654 40.8649 34.7196 40.6319 34.395C40.4684 34.1671 36.5638 28.8077 31.0689 28.3425C28.4484 28.1204 26.1761 28.4755 24.4975 29.3683C23.2046 30.0561 22.3135 31.0413 21.9039 32.2061C19.0179 31.5179 17.3014 30.6233 16.4841 30.1082C19.2554 28.3593 22.2524 26.2893 25.1304 23.9576C26.1982 24.8141 27.4615 25.253 28.8589 25.253ZM8.32517 22.8289C7.45705 21.2801 7.08329 19.0994 7.24432 16.5223C7.51152 12.2485 11.0754 8.734 12.4742 7.51172C13.7104 8.89933 16.8084 12.83 16.5413 17.1035C16.3802 19.6806 15.7377 21.7978 14.6835 23.2263C13.9401 24.2336 13.045 24.827 12.0643 24.9702C12.414 22.7571 12.632 20.0951 12.5946 16.9258C12.5892 16.4772 12.2259 16.1168 11.7727 16.1231C11.3241 16.1285 10.9648 16.4964 10.97 16.945C11.0072 20.0879 10.7803 22.6894 10.4416 24.798C9.60078 24.4846 8.87973 23.8182 8.32517 22.8289ZM30.4836 33.1591C27.7222 33.1309 25.417 32.8883 23.5154 32.5434C23.821 31.8472 24.4105 31.2549 25.2604 30.8028C26.6625 30.057 28.6237 29.7661 30.9317 29.9614C34.6976 30.2802 37.7459 33.4565 38.8583 34.7743C37.5397 35.8867 34.0009 38.5055 30.2354 38.186C27.9272 37.9905 26.0429 37.374 24.7862 36.4031C23.9454 35.7534 23.4459 34.9888 23.3113 34.1626C25.2855 34.5129 27.653 34.7551 30.4668 34.7837C30.4697 34.7837 30.4725 34.7837 30.4754 34.7837C30.92 34.7837 31.2829 34.4255 31.2875 33.9797C31.2922 33.5311 30.9322 33.1637 30.4836 33.1591ZM24.5866 18.1317C24.9922 16.1556 26.4467 13.8773 28.7929 11.5433C32.8217 7.53571 39.7082 6.25035 42.2612 5.90001C41.9064 8.45706 40.607 15.3609 36.5777 19.369C34.2365 21.6979 31.9452 23.133 29.9513 23.519C28.5924 23.782 27.407 23.5703 26.4153 22.8908C28.2188 21.358 29.9534 19.7235 31.5295 18.0011C31.8447 17.6567 31.8073 17.1142 31.4367 16.8176C31.0983 16.5468 30.6031 16.6074 30.3103 16.927C28.7545 18.6249 27.0375 20.2371 25.2511 21.749C24.5254 20.7386 24.3006 19.5258 24.5866 18.1317Z" fill="#755A5A"/>
</g>
<defs>
<clipPath id="clip0">
<rect width="44" height="44" fill="white"/>
</clipPath>
</defs>
</svg>
