<svg width="44" height="44" viewBox="0 0 44 44" fill="none" xmlns="http://www.w3.org/2000/svg">
<path d="M44 0.644531V0H43.3555C38.1818 0 33.9506 4.10979 33.7532 9.23605L32.5151 10.3857C32.7022 9.68335 32.7993 8.95211 32.7993 8.20583C32.7992 5.95779 31.9237 3.84433 30.334 2.25474L29.8783 1.79902L29.4225 2.25474C27.833 3.84433 26.9575 5.95779 26.9575 8.20583C26.9575 10.2328 27.6696 12.1503 28.9748 13.673L25.7923 16.6282C26.0973 15.6643 26.2561 14.6488 26.2561 13.6088C26.2561 10.9456 25.2191 8.4419 23.3359 6.55858L22.8801 6.10285L22.4243 6.55858C20.5411 8.44181 19.504 10.9456 19.504 13.6088C19.504 16.0503 20.3762 18.3574 21.9722 20.1755L18.0694 23.7995C18.5365 22.5167 18.7805 21.1483 18.7805 19.7424C18.7805 16.581 17.5494 13.6088 15.314 11.3733L14.8582 10.9176L14.4025 11.3733C12.167 13.6088 10.936 16.581 10.936 19.7424C10.936 22.6814 12.0005 25.4563 13.9461 27.6284L9.35808 31.8887C11.4402 26.7961 10.4178 20.7214 6.2902 16.5938L5.83447 16.138L5.37874 16.5938C0.0501018 21.9225 -0.103469 30.496 4.91726 36.0125L3.74825 37.0979L0 40.8456L3.15442 44L6.8854 40.2691L6.89382 40.2606L7.9872 39.0831C10.5831 41.4483 13.9192 42.7433 17.4545 42.7433C21.2138 42.7433 24.7479 41.2794 27.4062 38.6212L27.862 38.1654L27.4062 37.7095C24.7479 35.0513 21.2138 33.5875 17.4545 33.5875C15.5961 33.5875 13.7929 33.9458 12.123 34.6288L16.3714 30.0535C18.5434 31.9993 21.3185 33.0639 24.2575 33.0638C27.4189 33.0638 30.3911 31.8327 32.6266 29.5972L33.0823 29.1414L32.6266 28.6856C30.3911 26.4502 27.419 25.2191 24.2575 25.2191C22.8514 25.2191 21.4828 25.4633 20.1998 25.9304L23.8244 22.0269C25.6978 23.6692 28.0443 24.4911 30.3911 24.4911C32.9443 24.4911 35.4975 23.5191 37.4412 21.5755L37.897 21.1197L37.4412 20.6638C34.719 17.9417 30.8015 17.1262 27.3627 18.2164L30.3283 15.0227C31.897 16.365 33.8445 17.0383 35.794 17.0383C37.9489 17.0383 40.1046 16.2177 41.7451 14.5772L42.2009 14.1214L41.7452 13.6656C40.1556 12.076 38.042 11.2005 35.794 11.2005C35.0474 11.2005 34.3158 11.2976 33.6132 11.4849L34.763 10.2465C39.8898 10.0499 44 5.81857 44 0.644531ZM42.6841 1.31588C42.3881 5.00655 39.6729 8.02484 36.1298 8.7817L39.9254 4.98609L39.0139 4.07447L35.2183 7.87016C35.9752 4.32713 38.9935 1.61193 42.6841 1.31588ZM12.2249 19.7424C12.225 17.1481 13.1554 14.6969 14.8582 12.7695C16.5611 14.6969 17.4916 17.1481 17.4916 19.7425C17.4916 21.9878 16.7942 24.1256 15.5028 25.9096L14.8445 26.5085L14.2138 25.9096C12.9223 24.1255 12.2249 21.9876 12.2249 19.7424ZM2.54573 26.5454C2.54573 23.3519 3.70872 20.337 5.83447 17.9847C9.98534 22.5832 10.1997 29.4936 6.47909 34.3318L5.5 35C3.7852 32.7767 2.54573 29.3994 2.54573 26.5454ZM17.4546 34.8767C20.6481 34.8767 23.6631 36.0398 26.0155 38.1654C23.6631 40.2911 20.6483 41.4542 17.4546 41.4542C14.6006 41.4542 11.8897 40.5245 9.66642 38.8099H11.626V37.5209H9.66642C11.8897 35.8062 14.6006 34.8767 17.4546 34.8767ZM24.2576 26.5085C26.8519 26.5085 29.303 27.4388 31.2302 29.1417C27.5187 32.4162 21.3984 32.4417 17.4545 29.5972L18.0904 28.4974C19.8744 27.2057 22.0123 26.5085 24.2576 26.5085ZM23.2036 20.8017L22.8854 21.12L22.8972 21.1318L15.8029 28.772L15.4329 29.1419L15.4466 29.1556L7.06432 38.1826L5.96544 39.3661L3.15442 42.1771L1.82291 40.8456L4.63401 38.0346L5.81745 36.9357L14.8445 28.5534L14.8583 28.5673L15.2325 28.1932L22.8683 21.1028L22.8803 21.1148L23.2054 20.7898L23.2727 20.7274L23.2036 20.8017ZM23.5246 18.4033V14.8466V18.2164L22.5 19C21.5623 17.5905 20.7932 15.3404 20.7932 13.6089C20.7932 11.5147 21.5298 9.53365 22.8802 7.96168C24.2306 9.53365 24.9672 11.5148 24.9672 13.6089C24.9672 15.3404 24.4625 16.9939 23.5246 18.4033ZM36.0379 21.1198C33.0738 23.6614 28.7888 23.8752 25.6007 21.7644L24.9672 21.1318L25.6007 20.4754C28.7888 18.3646 33.0738 18.5783 36.0379 21.1198ZM30.5229 11.8278L29.8784 12.4899L29.2339 11.8278C28.591 10.7423 28.2466 9.50082 28.2466 8.20609C28.2466 6.52953 28.8217 4.94123 29.8784 3.66661C30.935 4.94115 31.5101 6.52945 31.5101 8.206C31.5101 9.50065 31.1657 10.7421 30.5229 11.8278ZM35.7941 12.4899C37.4706 12.4899 39.0587 13.0649 40.3333 14.1214C38.0015 16.0505 34.7206 16.2644 32.1767 14.7662L31.5101 14.1214L32.1723 13.4772C33.2579 12.8343 34.4994 12.4899 35.7941 12.4899Z" fill="#755A5A"/>
</svg>
